<svg width="203" height="26" viewBox="0 0 203 26" fill="none" xmlns="http://www.w3.org/2000/svg">
<path d="M44.9742 6.4V19H43.2102V7.966H35.9022V19H34.1202V6.4H44.9742ZM48.6154 9.46H50.3434V13.51H55.7794V9.46H57.5074V19H55.7794V15.004H50.3434V19H48.6154V9.46ZM60.2194 13.312H65.0614V14.806H60.2194V13.312ZM78.882 6.4V19H77.082V13.384H69.846V19H68.046V6.4H69.846V11.818H77.082V6.4H78.882ZM91.5956 9.46V17.704C91.5956 19.372 91.1816 20.602 90.3536 21.394C89.5256 22.198 88.2896 22.6 86.6456 22.6C85.7456 22.6 84.8876 22.474 84.0716 22.222C83.2556 21.982 82.5956 21.634 82.0916 21.178L82.9196 19.846C83.3636 20.23 83.9096 20.53 84.5576 20.746C85.2176 20.974 85.8956 21.088 86.5916 21.088C87.7076 21.088 88.5296 20.824 89.0576 20.296C89.5976 19.768 89.8676 18.964 89.8676 17.884V17.128C89.4596 17.62 88.9556 17.992 88.3556 18.244C87.7676 18.484 87.1256 18.604 86.4296 18.604C85.5176 18.604 84.6896 18.412 83.9456 18.028C83.2136 17.632 82.6376 17.086 82.2176 16.39C81.7976 15.682 81.5876 14.878 81.5876 13.978C81.5876 13.078 81.7976 12.28 82.2176 11.584C82.6376 10.876 83.2136 10.33 83.9456 9.946C84.6896 9.562 85.5176 9.37 86.4296 9.37C87.1496 9.37 87.8156 9.502 88.4276 9.766C89.0516 10.03 89.5616 10.42 89.9576 10.936V9.46H91.5956ZM86.6276 17.092C87.2516 17.092 87.8096 16.96 88.3016 16.696C88.8056 16.432 89.1956 16.066 89.4716 15.598C89.7596 15.118 89.9036 14.578 89.9036 13.978C89.9036 13.054 89.5976 12.31 88.9856 11.746C88.3736 11.17 87.5876 10.882 86.6276 10.882C85.6556 10.882 84.8636 11.17 84.2516 11.746C83.6396 12.31 83.3336 13.054 83.3336 13.978C83.3336 14.578 83.4716 15.118 83.7476 15.598C84.0356 16.066 84.4256 16.432 84.9176 16.696C85.4216 16.96 85.9916 17.092 86.6276 17.092ZM104.141 19.144C103.145 19.144 102.257 18.892 101.477 18.388C100.709 17.872 100.103 17.128 99.6589 16.156C99.2149 15.184 98.9929 14.032 98.9929 12.7C98.9929 11.368 99.2149 10.216 99.6589 9.244C100.103 8.272 100.709 7.534 101.477 7.03C102.257 6.514 103.145 6.256 104.141 6.256C105.125 6.256 106.001 6.514 106.769 7.03C107.549 7.534 108.161 8.272 108.605 9.244C109.049 10.216 109.271 11.368 109.271 12.7C109.271 14.032 109.049 15.184 108.605 16.156C108.161 17.128 107.549 17.872 106.769 18.388C106.001 18.892 105.125 19.144 104.141 19.144ZM104.141 17.542C105.149 17.542 105.953 17.128 106.553 16.3C107.165 15.472 107.471 14.272 107.471 12.7C107.471 11.128 107.165 9.928 106.553 9.1C105.953 8.272 105.149 7.858 104.141 7.858C103.121 7.858 102.305 8.272 101.693 9.1C101.093 9.928 100.793 11.128 100.793 12.7C100.793 14.272 101.093 15.472 101.693 16.3C102.305 17.128 103.121 17.542 104.141 17.542ZM118.703 12.394C119.423 12.67 119.975 13.066 120.359 13.582C120.743 14.098 120.935 14.716 120.935 15.436C120.935 16.192 120.731 16.852 120.323 17.416C119.915 17.968 119.333 18.394 118.577 18.694C117.821 18.994 116.933 19.144 115.913 19.144C114.905 19.144 114.023 18.994 113.267 18.694C112.523 18.394 111.947 17.968 111.539 17.416C111.131 16.852 110.927 16.192 110.927 15.436C110.927 14.716 111.113 14.098 111.485 13.582C111.869 13.066 112.421 12.67 113.141 12.394C112.565 12.118 112.127 11.752 111.827 11.296C111.527 10.84 111.377 10.3 111.377 9.676C111.377 8.98 111.563 8.374 111.935 7.858C112.319 7.342 112.853 6.946 113.537 6.67C114.221 6.394 115.013 6.256 115.913 6.256C116.825 6.256 117.623 6.394 118.307 6.67C119.003 6.946 119.537 7.342 119.909 7.858C120.293 8.374 120.485 8.98 120.485 9.676C120.485 10.288 120.329 10.828 120.017 11.296C119.717 11.752 119.279 12.118 118.703 12.394ZM115.913 7.714C115.061 7.714 114.389 7.9 113.897 8.272C113.405 8.632 113.159 9.124 113.159 9.748C113.159 10.372 113.399 10.864 113.879 11.224C114.371 11.584 115.049 11.764 115.913 11.764C116.789 11.764 117.473 11.584 117.965 11.224C118.469 10.864 118.721 10.372 118.721 9.748C118.721 9.124 118.463 8.632 117.947 8.272C117.443 7.9 116.765 7.714 115.913 7.714ZM115.913 17.686C116.909 17.686 117.695 17.482 118.271 17.074C118.847 16.654 119.135 16.09 119.135 15.382C119.135 14.686 118.847 14.14 118.271 13.744C117.695 13.336 116.909 13.132 115.913 13.132C114.917 13.132 114.137 13.336 113.573 13.744C113.009 14.14 112.727 14.686 112.727 15.382C112.727 16.09 113.009 16.654 113.573 17.074C114.137 17.482 114.917 17.686 115.913 17.686ZM123.771 11.836C123.435 11.836 123.147 11.722 122.907 11.494C122.667 11.254 122.547 10.954 122.547 10.594C122.547 10.246 122.667 9.958 122.907 9.73C123.147 9.49 123.435 9.37 123.771 9.37C124.107 9.37 124.389 9.484 124.617 9.712C124.845 9.94 124.959 10.234 124.959 10.594C124.959 10.954 124.839 11.254 124.599 11.494C124.371 11.722 124.095 11.836 123.771 11.836ZM123.771 19.108C123.435 19.108 123.147 18.994 122.907 18.766C122.667 18.526 122.547 18.226 122.547 17.866C122.547 17.518 122.667 17.23 122.907 17.002C123.147 16.762 123.435 16.642 123.771 16.642C124.107 16.642 124.389 16.756 124.617 16.984C124.845 17.212 124.959 17.506 124.959 17.866C124.959 18.226 124.839 18.526 124.599 18.766C124.371 18.994 124.095 19.108 123.771 19.108ZM131.809 19.144C130.813 19.144 129.925 18.892 129.145 18.388C128.377 17.872 127.771 17.128 127.327 16.156C126.883 15.184 126.661 14.032 126.661 12.7C126.661 11.368 126.883 10.216 127.327 9.244C127.771 8.272 128.377 7.534 129.145 7.03C129.925 6.514 130.813 6.256 131.809 6.256C132.793 6.256 133.669 6.514 134.437 7.03C135.217 7.534 135.829 8.272 136.273 9.244C136.717 10.216 136.939 11.368 136.939 12.7C136.939 14.032 136.717 15.184 136.273 16.156C135.829 17.128 135.217 17.872 134.437 18.388C133.669 18.892 132.793 19.144 131.809 19.144ZM131.809 17.542C132.817 17.542 133.621 17.128 134.221 16.3C134.833 15.472 135.139 14.272 135.139 12.7C135.139 11.128 134.833 9.928 134.221 9.1C133.621 8.272 132.817 7.858 131.809 7.858C130.789 7.858 129.973 8.272 129.361 9.1C128.761 9.928 128.461 11.128 128.461 12.7C128.461 14.272 128.761 15.472 129.361 16.3C129.973 17.128 130.789 17.542 131.809 17.542ZM143.815 19.144C142.819 19.144 141.931 18.892 141.151 18.388C140.383 17.872 139.777 17.128 139.333 16.156C138.889 15.184 138.667 14.032 138.667 12.7C138.667 11.368 138.889 10.216 139.333 9.244C139.777 8.272 140.383 7.534 141.151 7.03C141.931 6.514 142.819 6.256 143.815 6.256C144.799 6.256 145.675 6.514 146.443 7.03C147.223 7.534 147.835 8.272 148.279 9.244C148.723 10.216 148.945 11.368 148.945 12.7C148.945 14.032 148.723 15.184 148.279 16.156C147.835 17.128 147.223 17.872 146.443 18.388C145.675 18.892 144.799 19.144 143.815 19.144ZM143.815 17.542C144.823 17.542 145.627 17.128 146.227 16.3C146.839 15.472 147.145 14.272 147.145 12.7C147.145 11.128 146.839 9.928 146.227 9.1C145.627 8.272 144.823 7.858 143.815 7.858C142.795 7.858 141.979 8.272 141.367 9.1C140.767 9.928 140.467 11.128 140.467 12.7C140.467 14.272 140.767 15.472 141.367 16.3C141.979 17.128 142.795 17.542 143.815 17.542ZM150.958 13.312H155.8V14.806H150.958V13.312ZM161.276 6.4V19H159.494V7.966H156.65V6.4H161.276ZM171.736 12.394C172.456 12.67 173.008 13.066 173.392 13.582C173.776 14.098 173.968 14.716 173.968 15.436C173.968 16.192 173.764 16.852 173.356 17.416C172.948 17.968 172.366 18.394 171.61 18.694C170.854 18.994 169.966 19.144 168.946 19.144C167.938 19.144 167.056 18.994 166.3 18.694C165.556 18.394 164.98 17.968 164.572 17.416C164.164 16.852 163.96 16.192 163.96 15.436C163.96 14.716 164.146 14.098 164.518 13.582C164.902 13.066 165.454 12.67 166.174 12.394C165.598 12.118 165.16 11.752 164.86 11.296C164.56 10.84 164.41 10.3 164.41 9.676C164.41 8.98 164.596 8.374 164.968 7.858C165.352 7.342 165.886 6.946 166.57 6.67C167.254 6.394 168.046 6.256 168.946 6.256C169.858 6.256 170.656 6.394 171.34 6.67C172.036 6.946 172.57 7.342 172.942 7.858C173.326 8.374 173.518 8.98 173.518 9.676C173.518 10.288 173.362 10.828 173.05 11.296C172.75 11.752 172.312 12.118 171.736 12.394ZM168.946 7.714C168.094 7.714 167.422 7.9 166.93 8.272C166.438 8.632 166.192 9.124 166.192 9.748C166.192 10.372 166.432 10.864 166.912 11.224C167.404 11.584 168.082 11.764 168.946 11.764C169.822 11.764 170.506 11.584 170.998 11.224C171.502 10.864 171.754 10.372 171.754 9.748C171.754 9.124 171.496 8.632 170.98 8.272C170.476 7.9 169.798 7.714 168.946 7.714ZM168.946 17.686C169.942 17.686 170.728 17.482 171.304 17.074C171.88 16.654 172.168 16.09 172.168 15.382C172.168 14.686 171.88 14.14 171.304 13.744C170.728 13.336 169.942 13.132 168.946 13.132C167.95 13.132 167.17 13.336 166.606 13.744C166.042 14.14 165.76 14.686 165.76 15.382C165.76 16.09 166.042 16.654 166.606 17.074C167.17 17.482 167.95 17.686 168.946 17.686ZM176.804 11.836C176.468 11.836 176.18 11.722 175.94 11.494C175.7 11.254 175.58 10.954 175.58 10.594C175.58 10.246 175.7 9.958 175.94 9.73C176.18 9.49 176.468 9.37 176.804 9.37C177.14 9.37 177.422 9.484 177.65 9.712C177.878 9.94 177.992 10.234 177.992 10.594C177.992 10.954 177.872 11.254 177.632 11.494C177.404 11.722 177.128 11.836 176.804 11.836ZM176.804 19.108C176.468 19.108 176.18 18.994 175.94 18.766C175.7 18.526 175.58 18.226 175.58 17.866C175.58 17.518 175.7 17.23 175.94 17.002C176.18 16.762 176.468 16.642 176.804 16.642C177.14 16.642 177.422 16.756 177.65 16.984C177.878 17.212 177.992 17.506 177.992 17.866C177.992 18.226 177.872 18.526 177.632 18.766C177.404 18.994 177.128 19.108 176.804 19.108ZM184.842 19.144C183.846 19.144 182.958 18.892 182.178 18.388C181.41 17.872 180.804 17.128 180.36 16.156C179.916 15.184 179.694 14.032 179.694 12.7C179.694 11.368 179.916 10.216 180.36 9.244C180.804 8.272 181.41 7.534 182.178 7.03C182.958 6.514 183.846 6.256 184.842 6.256C185.826 6.256 186.702 6.514 187.47 7.03C188.25 7.534 188.862 8.272 189.306 9.244C189.75 10.216 189.972 11.368 189.972 12.7C189.972 14.032 189.75 15.184 189.306 16.156C188.862 17.128 188.25 17.872 187.47 18.388C186.702 18.892 185.826 19.144 184.842 19.144ZM184.842 17.542C185.85 17.542 186.654 17.128 187.254 16.3C187.866 15.472 188.172 14.272 188.172 12.7C188.172 11.128 187.866 9.928 187.254 9.1C186.654 8.272 185.85 7.858 184.842 7.858C183.822 7.858 183.006 8.272 182.394 9.1C181.794 9.928 181.494 11.128 181.494 12.7C181.494 14.272 181.794 15.472 182.394 16.3C183.006 17.128 183.822 17.542 184.842 17.542ZM196.848 19.144C195.852 19.144 194.964 18.892 194.184 18.388C193.416 17.872 192.81 17.128 192.366 16.156C191.922 15.184 191.7 14.032 191.7 12.7C191.7 11.368 191.922 10.216 192.366 9.244C192.81 8.272 193.416 7.534 194.184 7.03C194.964 6.514 195.852 6.256 196.848 6.256C197.832 6.256 198.708 6.514 199.476 7.03C200.256 7.534 200.868 8.272 201.312 9.244C201.756 10.216 201.978 11.368 201.978 12.7C201.978 14.032 201.756 15.184 201.312 16.156C200.868 17.128 200.256 17.872 199.476 18.388C198.708 18.892 197.832 19.144 196.848 19.144ZM196.848 17.542C197.856 17.542 198.66 17.128 199.26 16.3C199.872 15.472 200.178 14.272 200.178 12.7C200.178 11.128 199.872 9.928 199.26 9.1C198.66 8.272 197.856 7.858 196.848 7.858C195.828 7.858 195.012 8.272 194.4 9.1C193.8 9.928 193.5 11.128 193.5 12.7C193.5 14.272 193.8 15.472 194.4 16.3C195.012 17.128 195.828 17.542 196.848 17.542Z" fill="#3E3B3B"/>
<circle cx="13" cy="13" r="13" fill="#3E3B3B"/>
<path d="M13 20C11.1302 20 9.37239 19.2719 8.05023 17.9498C6.72814 16.6276 6 14.8698 6 13C6 11.1302 6.72814 9.37239 8.05023 8.05023C9.37239 6.72814 11.1302 6 13 6C14.8698 6 16.6276 6.72814 17.9498 8.05023C19.2719 9.37239 20 11.1302 20 13C20 14.8698 19.2719 16.6276 17.9498 17.9498C16.6276 19.2719 14.8698 20 13 20V20ZM13 6.82031C11.3493 6.82031 9.7975 7.46311 8.6303 8.6303C7.46311 9.7975 6.82031 11.3493 6.82031 13C6.82031 14.6507 7.46311 16.2025 8.6303 17.3697C9.7975 18.5369 11.3493 19.1797 13 19.1797C14.6507 19.1797 16.2025 18.5369 17.3697 17.3697C18.5369 16.2025 19.1797 14.6507 19.1797 13C19.1797 11.3493 18.5369 9.7975 17.3697 8.6303C16.2025 7.46311 14.6507 6.82031 13 6.82031V6.82031Z" fill="#FFBE2E"/>
<path d="M12.5897 7.6416H13.41V8.73623H12.5897V7.6416Z" fill="#FFBE2E"/>
<path d="M15.7248 9.6958L16.4987 8.9219L17.0786 9.50186L16.3047 10.2758L15.7248 9.6958Z" fill="#FFBE2E"/>
<path d="M17.2624 12.5898H18.357V13.4102H17.2624V12.5898Z" fill="#FFBE2E"/>
<path d="M15.7223 16.3049L16.3023 15.725L17.0762 16.4989L16.4962 17.0788L15.7223 16.3049Z" fill="#FFBE2E"/>
<path d="M12.5897 17.2637H13.41V18.3583H12.5897V17.2637Z" fill="#FFBE2E"/>
<path d="M8.91846 16.4983L9.69236 15.7244L10.2723 16.3044L9.49842 17.0783L8.91846 16.4983Z" fill="#FFBE2E"/>
<path d="M7.6424 12.5898H8.73702V13.4102H7.6424V12.5898Z" fill="#FFBE2E"/>
<path d="M8.92093 9.50098L9.50089 8.92102L10.2748 9.69492L9.69483 10.2749L8.92093 9.50098Z" fill="#FFBE2E"/>
<path d="M15.8954 13.4101H12.5897V10.1045H13.41V12.5898H15.8954V13.4101Z" fill="#FFBE2E"/>
</svg>
